<svg width="22" height="18" viewBox="0 0 22 18" fill="none" xmlns="http://www.w3.org/2000/svg">
  <path d="M9.743 2.092C10.149 2.032 10.569 2 11 2C16.105 2 19.455 6.505 20.581 8.287C20.717 8.503 20.785 8.61 20.823 8.777C20.852 8.902 20.852 9.099 20.823 9.224C20.785 9.39 20.716 9.498 20.579 9.716C20.279 10.19 19.822 10.857 19.216 11.58M5.724 3.715C3.562 5.182 2.094 7.219 1.421 8.285C1.284 8.502 1.216 8.61 1.178 8.776C1.149 8.901 1.149 9.098 1.178 9.223C1.216 9.39 1.284 9.498 1.42 9.713C2.546 11.495 5.895 16 11 16C13.059 16 14.832 15.268 16.289 14.277M2 0L20 18M8.879 6.879C8.336 7.422 8 8.172 8 9C8 10.657 9.344 12 11 12C11.829 12 12.579 11.664 13.122 11.121" stroke="#EDEDED" stroke-width="2" stroke-linecap="round" stroke-linejoin="round"/>
</svg>
