<svg width="18" height="20" viewBox="0 0 18 20" fill="none" xmlns="http://www.w3.org/2000/svg">
  <path d="M13 8.5V5.5C13 2.739 10.761 0.5 8 0.5C5.239 0.5 3 2.739 3 5.5V8.5M4.8 18.5H11.2C12.88 18.5 13.72 18.5 14.362 18.173C14.926 17.885 15.385 17.426 15.673 16.862C16 16.22 16 15.38 16 13.7V13.3C16 11.62 16 10.78 15.673 10.138C15.385 9.574 14.926 9.115 14.362 8.827C13.72 8.5 12.88 8.5 11.2 8.5H4.8C3.12 8.5 2.28 8.5 1.638 8.827C1.074 9.115 0.615 9.574 0.327 10.138C0 10.78 0 11.62 0 13.3V13.7C0 15.38 0 16.22 0.327 16.862C0.615 17.426 1.074 17.885 1.638 18.173C2.28 18.5 3.12 18.5 4.8 18.5Z" stroke="#EDEDED" stroke-width="2" stroke-linecap="round" stroke-linejoin="round"/>
</svg>
