<svg width="22" height="16" viewBox="0 0 22 16" fill="none" xmlns="http://www.w3.org/2000/svg">
  <path d="M1.42 7.713C1.284 7.498 1.216 7.39 1.178 7.224C1.149 7.099 1.149 6.902 1.178 6.777C1.216 6.61 1.284 6.502 1.421 6.285C2.546 4.505 5.895 0 11 0C16.105 0 19.455 4.505 20.581 6.287C20.717 6.503 20.785 6.61 20.823 6.777C20.852 6.902 20.852 7.099 20.823 7.224C20.785 7.39 20.717 7.498 20.581 7.713C19.455 9.495 16.105 14 11 14C5.895 14 2.546 9.495 1.42 7.713Z" stroke="#EDEDED" stroke-width="2"/>
  <circle cx="11" cy="7" r="3" stroke="#EDEDED" stroke-width="2"/>
</svg>
